# xmcd
# 
# Track frame offsets:
#     150
#     17309
#     35281
#     55005
#     73070
#     88563
#     106503
#     127301
#     147864
#     163238
#     184362
#     201325
#     217961
#     234297
#     253073
# 
# Disc length: 3595
# 
# Revision: 2
# Processed by: cddbd v1.5.2PL0 Copyright (c) Steve Scherf et al.
# Submitted via: fre:ac v1.0.17
# 
DISCID=cf0e090f
DTITLE=James Bay - Choas and the Calm
DYEAR=2015
DGENRE=Folk
TTITLE0=Craving
TTITLE1=Hold back the River
TTITLE2=Let it Go
TTITLE3=If you ever want to be in Love
TTITLE4=Best fake smile
TTITLE5=When we were on fire
TTITLE6=Move together
TTITLE7=Scars
TTITLE8=Collide
TTITLE9=Get out while you can
TTITLE10=Need the sun to break
TTITLE11=Incomplete
TTITLE12=Running
TTITLE13=Clocks go forward
TTITLE14=Stealing Cars
EXTD=
EXTT0=
EXTT1=
EXTT2=
EXTT3=
EXTT4=
EXTT5=
EXTT6=
EXTT7=
EXTT8=
EXTT9=
EXTT10=
EXTT11=
EXTT12=
EXTT13=
EXTT14=
PLAYORDER=
